<svg width="215" height="49" viewBox="0 0 215 49" fill="none" xmlns="http://www.w3.org/2000/svg">
<path d="M23.0604 2.37104C19.2556 7.06603 15.3216 11.3016 13.7997 12.321C12.407 13.2686 11.646 12.8666 11.2296 11.0001C10.8994 9.53557 10.3825 8.55924 9.54977 7.81264C8.5878 6.95117 7.5684 6.57787 6.11826 6.57787C5.12758 6.57787 4.88349 6.6353 4.07946 7.05168C2.64368 7.78392 1.95451 9.01869 1.95451 10.8278C1.95451 12.0195 2.27038 13.0102 2.90212 13.7424C3.64872 14.6039 4.30918 14.9772 5.85982 15.4079C7.78377 15.9535 8.41551 16.4273 8.41551 17.3606C8.41551 18.3943 6.19005 20.6198 2.09808 23.6636C1.1074 24.3959 0.289003 24.9989 0.260287 25.0276C0.202856 25.0707 3.39028 29.0047 5.04143 30.9143C7.64019 33.9007 9.19083 35.2934 9.92308 35.2934C10.4687 35.2934 10.6984 34.834 11.0573 33.0249C11.4737 30.9 11.8039 30.1821 12.7516 29.335C14.5319 27.7412 17.4178 28.014 19.3131 29.9667C20.3038 30.9861 20.6771 31.8189 20.7345 33.1541C20.7919 34.1161 20.7345 34.3745 20.3899 35.1499C19.7438 36.6 18.6383 37.3466 16.0969 38.0788C14.5606 38.5239 14.1012 38.8255 14.0438 39.4285C14.0007 39.8018 14.1443 40.0028 15.0344 40.893C16.2549 42.099 18.8823 44.3676 22.1559 47.0381L24.4819 48.9477L25.0275 48.3303C30.0958 42.6159 34.4749 38.3373 35.8102 37.7773C36.7291 37.3897 37.5187 38.165 37.849 39.7731C38.093 40.936 38.2941 41.4386 38.9258 42.3862C40.419 44.6404 43.4916 44.8701 45.674 42.8887C47.7271 40.9935 47.7702 38.4952 45.7457 36.6861C45.0422 36.0544 44.6258 35.8534 42.185 34.9919C40.5195 34.4033 40.218 33.5705 41.1656 32.1778C42.0989 30.8282 45.3294 27.7556 48.244 25.444L48.804 24.9989L47.3825 23.2903C44.2813 19.5573 41.2661 16.3124 39.8878 15.2213C38.5525 14.1731 38.0356 14.5034 37.6336 16.657C37.0736 19.7009 35.6379 20.9931 32.752 21.0074C31.6608 21.0074 31.3592 20.95 30.7706 20.6485C27.9995 19.2414 27.4826 15.092 29.7942 12.9958C30.3686 12.4789 30.8854 12.2779 33.2832 11.6749C34.36 11.4021 34.762 11.0719 34.6328 10.555C34.4462 9.79401 31.8761 7.13782 27.5832 3.28994C26.3915 2.22746 25.2285 1.16499 24.9844 0.949618L24.5393 0.533243L23.0604 2.37104Z" fill="#FF6F61"/>
<path d="M139.287 1.40904C138.612 1.55262 138.239 1.81106 137.966 2.31358C137.722 2.74431 137.707 3.79243 137.707 19.3132C137.707 35.8103 137.707 35.8534 138.009 36.2554C138.899 37.4758 140.852 37.4184 141.541 36.1405C141.771 35.7098 141.799 35.2647 141.799 31.8332V27.9997L143.12 26.8367C143.838 26.1906 144.484 25.6881 144.542 25.7024C144.599 25.7311 146.667 28.2294 149.122 31.2732C151.577 34.3171 153.731 36.9158 153.903 37.0451C154.678 37.6624 155.841 37.4758 156.588 36.643C156.932 36.241 157.018 36.0113 157.018 35.4657C157.018 35.0493 156.918 34.6473 156.774 34.4319C156.631 34.2309 154.535 31.6322 152.094 28.6314C149.653 25.645 147.629 23.118 147.6 23.0319C147.571 22.9457 149.538 21.0792 151.993 18.8825C154.448 16.6714 156.559 14.6756 156.674 14.4459C157.464 12.924 155.511 11.1149 154.075 12.0194C153.845 12.163 151.003 14.6613 147.758 17.5472L141.871 22.8165L141.799 12.723C141.742 5.45794 141.684 2.54331 141.555 2.3423C141.124 1.59569 140.206 1.22239 139.287 1.40904Z" fill="#6F605B"/>
<path d="M187.17 1.42345C184.844 1.65317 182.949 2.51464 181.369 4.07964C179.474 5.98923 178.412 8.77463 178.412 11.919V13.0102L176.761 13.0676C175.138 13.1107 175.109 13.1107 174.664 13.5558C173.774 14.446 174.047 15.9535 175.181 16.4273C175.497 16.5566 176.172 16.6283 177.048 16.6283H178.412V26.1332C178.412 35.3796 178.426 35.6668 178.699 36.1262C179.503 37.4328 181.542 37.5046 182.303 36.2411C182.561 35.8103 182.575 35.3365 182.575 26.2193V16.6427L185.49 16.5996C188.247 16.5566 188.419 16.5422 188.85 16.2263C189.754 15.5802 189.797 14.2449 188.95 13.4553C188.591 13.125 188.505 13.1107 185.619 13.0389L182.647 12.9671L182.604 12.4072C182.446 10.4832 183.279 7.88445 184.428 6.73583C185.404 5.7595 186.983 5.14212 188.477 5.14212C189.137 5.14212 189.683 4.89803 190.185 4.35244C190.472 4.05092 190.544 3.8212 190.544 3.20381C190.544 2.54336 190.487 2.37106 190.128 1.99776C189.769 1.62446 189.539 1.52395 188.606 1.35166C188.491 1.32295 187.845 1.36602 187.17 1.42345Z" fill="#6F605B"/>
<path d="M165.102 2.4859C163.523 3.43351 163.322 5.57282 164.686 6.8363C165.777 7.84135 167.169 7.94185 168.304 7.08039C169.51 6.16149 169.696 4.06525 168.677 2.94534C167.887 2.06952 166.164 1.85415 165.102 2.4859Z" fill="#6F605B"/>
<path d="M65.3297 4.40987C64.4826 4.92675 64.4109 5.28569 64.4109 9.3633V13.0389H62.9033C60.7496 13.0389 60.1035 13.4409 60.1035 14.7762C60.1035 16.1115 60.9219 16.6283 63.0469 16.6283H64.4109V22.9314C64.4109 29.8662 64.4826 30.6272 65.2436 32.2927C66.665 35.394 69.4074 37.1456 72.8676 37.16C74.4613 37.16 75.1792 36.8441 75.6099 35.9252C76.0263 35.0925 75.8971 34.3028 75.251 33.5849L74.7772 33.0824L73.1547 32.9962C71.3313 32.8957 70.7139 32.6803 69.9242 31.8189C68.6177 30.3975 68.5746 30.1247 68.5746 22.7735V16.6283H70.9436C73.6285 16.6283 74.1311 16.5135 74.6049 15.7382C74.9495 15.1638 74.9638 14.6039 74.6623 13.9722C74.2746 13.1538 73.8152 13.0389 71.0298 13.0389H68.5746V9.37766C68.5746 5.28569 68.5172 4.92675 67.6844 4.42422C67.067 4.05092 65.9328 4.03656 65.3297 4.40987Z" fill="#6F605B"/>
<path d="M91.0446 12.0339C85.3159 12.9384 81.0516 17.4611 80.506 23.2186C79.9748 28.9043 82.5879 33.9869 87.168 36.1693C88.7618 36.9303 89.7668 37.1743 91.7769 37.2605C95.3376 37.4184 98.0369 36.399 100.492 33.9869L101.454 33.0249V34.231C101.454 36.2411 102 37.0308 103.435 37.1169C104.397 37.1887 105.015 36.8728 105.431 36.1262C105.675 35.6955 105.69 35.1499 105.69 29.4068C105.69 24.6687 105.647 22.9171 105.489 22.1561C104.527 17.3032 101.023 13.5127 96.357 12.321C95.0361 11.9764 92.3512 11.8328 91.0446 12.0339ZM94.9212 15.8387C98.0656 16.4991 100.564 19.0117 101.397 22.3715C101.756 23.7785 101.626 26.4204 101.138 27.7987C100.147 30.5698 97.9077 32.666 95.2084 33.3552C94.1316 33.628 92.1646 33.628 90.9872 33.3552C88.2736 32.7091 85.962 30.5698 84.9713 27.7987C84.4831 26.406 84.3539 23.7785 84.7129 22.3715C85.9189 17.6047 90.2262 14.848 94.9212 15.8387Z" fill="#6F605B"/>
<path d="M119.473 12.0482C117.147 12.3784 115.022 13.3978 113.73 14.7905C112.653 15.9535 112.323 16.8724 112.309 18.7245C112.294 20.1029 112.309 20.2034 112.84 21.2515C114.017 23.6493 116.257 24.9127 121.182 25.9609C123.536 26.4634 124.541 26.7793 125.604 27.3536C127.93 28.6171 128.174 31.1297 126.106 32.5367C125.101 33.2259 124.24 33.4556 122.258 33.5274C120.851 33.5848 120.191 33.5561 119.344 33.3695C117.908 33.0392 116.243 32.1921 115.18 31.2445C114.362 30.5123 114.29 30.4836 113.515 30.4836C112.84 30.4836 112.61 30.5554 112.165 30.8999C111.504 31.4025 111.16 32.1491 111.275 32.8526C111.461 34.1161 114.477 36.04 117.463 36.8153C119.401 37.3179 122.589 37.4471 124.556 37.1025C127.485 36.5856 129.825 35.0637 130.902 32.9675C131.663 31.4742 131.778 29.2488 131.16 27.612C130.773 26.5782 129.409 25.1281 128.145 24.4102C127.04 23.7928 124.742 23.0462 122.244 22.515C117.664 21.553 116.386 20.7203 116.386 18.6815C116.386 17.4036 117.176 16.5134 118.841 15.9535C119.904 15.5945 123.134 15.5945 124.269 15.9535C125.245 16.255 126.178 16.8006 126.939 17.5041C127.671 18.1789 128.389 18.4948 129.165 18.4948C130.256 18.4948 131.031 17.7913 131.031 16.8006C131.031 15.853 129.423 14.1875 127.671 13.2973C125.317 12.1056 122.287 11.6462 119.473 12.0482Z" fill="#6F605B"/>
<path d="M165.949 12.1774C165.691 12.2348 165.346 12.4071 165.188 12.5507C164.47 13.2112 164.485 12.8522 164.485 24.5969C164.485 37.002 164.427 36.3272 165.547 36.8728C166.624 37.3897 167.844 37.1169 168.376 36.241C168.634 35.8103 168.648 35.3509 168.62 24.4964L168.577 13.2112L168.218 12.8235C168.017 12.6081 167.758 12.3928 167.643 12.321C167.27 12.1343 166.437 12.0625 165.949 12.1774Z" fill="#6F605B"/>
<path d="M192.296 12.2349C192.009 12.3497 191.65 12.522 191.52 12.6225C191.147 12.9384 190.874 13.7424 190.989 14.2162C191.032 14.4603 193.401 19.184 196.23 24.7261C199.058 30.2826 201.384 34.8914 201.384 35.0063C201.384 35.1068 200.322 37.5907 199.015 40.5197C197.709 43.4487 196.646 46.0331 196.646 46.2484C196.646 46.8658 196.991 47.3971 197.637 47.756C198.714 48.3734 199.834 48.1437 200.307 47.2104C200.437 46.9663 203.796 39.5003 207.773 30.6128C215.785 12.7374 215.469 13.5988 214.522 12.7661C213.947 12.2779 213.014 11.9621 212.454 12.1056C212.253 12.1631 211.908 12.3641 211.707 12.5507C211.463 12.7804 209.97 15.9822 207.4 21.7253C205.232 26.5783 203.423 30.5554 203.38 30.5554C203.337 30.5554 201.298 26.5352 198.857 21.6248C195.785 15.4366 194.306 12.6082 194.062 12.4359C193.545 12.0769 192.927 12.0051 192.296 12.2349Z" fill="#6F605B"/>
</svg>
